<?xml version="1.0" encoding="UTF-8"?>
<svg width="83px" height="32px" viewBox="0 0 83 32" version="1.1" xmlns="http://www.w3.org/2000/svg" xmlns:xlink="http://www.w3.org/1999/xlink">
    <!-- Generator: Sketch 53.1 (72631) - https://sketchapp.com -->
    <title>Logo</title>
    <desc>Created with Sketch.</desc>
    <defs>
        <linearGradient x1="-0.026700068%" y1="50.0102693%" x2="100.006823%" y2="50.0102693%" id="linearGradient-1">
            <stop stop-color="#F8B133" offset="0.2390125%"></stop>
            <stop stop-color="#F8B530" offset="27.33%"></stop>
            <stop stop-color="#F9C029" offset="53.25%"></stop>
            <stop stop-color="#FAD41C" offset="78.6%"></stop>
            <stop stop-color="#FCEA0D" offset="100%"></stop>
        </linearGradient>
        <linearGradient x1="-209.855128%" y1="-59.0351279%" x2="806.188009%" y2="367.244869%" id="linearGradient-2">
            <stop stop-color="#E6E6E6" offset="0%"></stop>
            <stop stop-color="#FFFFFF" offset="99.76%"></stop>
        </linearGradient>
        <linearGradient x1="-193.077216%" y1="-47.6917357%" x2="6101.37357%" y2="2629.73653%" id="linearGradient-3">
            <stop stop-color="#E6E6E6" offset="0%"></stop>
            <stop stop-color="#FFFFFF" offset="99.76%"></stop>
        </linearGradient>
        <linearGradient x1="-42.8661345%" y1="10.0208697%" x2="266.333084%" y2="143.139852%" id="linearGradient-4">
            <stop stop-color="#E6E6E6" offset="0%"></stop>
            <stop stop-color="#FFFFFF" offset="99.76%"></stop>
        </linearGradient>
        <linearGradient x1="-28.1900811%" y1="-15.0886135%" x2="114.418235%" y2="110.57478%" id="linearGradient-5">
            <stop stop-color="#E6E6E6" offset="0%"></stop>
            <stop stop-color="#FFFFFF" offset="99.76%"></stop>
        </linearGradient>
        <linearGradient x1="-46.6023635%" y1="-35.6948796%" x2="89.317953%" y2="89.9685138%" id="linearGradient-6">
            <stop stop-color="#E6E6E6" offset="0%"></stop>
            <stop stop-color="#FFFFFF" offset="99.76%"></stop>
        </linearGradient>
        <linearGradient x1="-62.5049839%" y1="-55.7380372%" x2="68.218618%" y2="67.1198568%" id="linearGradient-7">
            <stop stop-color="#E6E6E6" offset="0%"></stop>
            <stop stop-color="#FFFFFF" offset="99.76%"></stop>
        </linearGradient>
        <linearGradient x1="0.00561998052%" y1="50.0010698%" x2="100.002754%" y2="50.0010698%" id="linearGradient-8">
            <stop stop-color="#F8B133" offset="0.2390125%"></stop>
            <stop stop-color="#F8B530" offset="27.33%"></stop>
            <stop stop-color="#F9C029" offset="53.25%"></stop>
            <stop stop-color="#FAD41C" offset="78.6%"></stop>
            <stop stop-color="#FCEA0D" offset="100%"></stop>
        </linearGradient>
        <linearGradient x1="-0.00259543636%" y1="50.0041733%" x2="99.9925381%" y2="50.0041733%" id="linearGradient-9">
            <stop stop-color="#F8B133" offset="0.2390125%"></stop>
            <stop stop-color="#F8B530" offset="27.33%"></stop>
            <stop stop-color="#F9C029" offset="53.25%"></stop>
            <stop stop-color="#FAD41C" offset="78.6%"></stop>
            <stop stop-color="#FCEA0D" offset="100%"></stop>
        </linearGradient>
        <linearGradient x1="-0.0102783408%" y1="50.0026989%" x2="99.9952454%" y2="50.0026989%" id="linearGradient-10">
            <stop stop-color="#F8B133" offset="0.2390125%"></stop>
            <stop stop-color="#F8B530" offset="27.33%"></stop>
            <stop stop-color="#F9C029" offset="53.25%"></stop>
            <stop stop-color="#FAD41C" offset="78.6%"></stop>
            <stop stop-color="#FCEA0D" offset="100%"></stop>
        </linearGradient>
        <linearGradient x1="-0.00310800311%" y1="49.9975885%" x2="99.9656825%" y2="49.9975885%" id="linearGradient-11">
            <stop stop-color="#F8B133" offset="0.2390125%"></stop>
            <stop stop-color="#F8B530" offset="27.33%"></stop>
            <stop stop-color="#F9C029" offset="53.25%"></stop>
            <stop stop-color="#FAD41C" offset="78.6%"></stop>
            <stop stop-color="#FCEA0D" offset="100%"></stop>
        </linearGradient>
        <linearGradient x1="0.000269510583%" y1="50.0042986%" x2="99.9738802%" y2="50.0042986%" id="linearGradient-12">
            <stop stop-color="#F8B133" offset="0.2390125%"></stop>
            <stop stop-color="#F8B530" offset="27.33%"></stop>
            <stop stop-color="#F9C029" offset="53.25%"></stop>
            <stop stop-color="#FAD41C" offset="78.6%"></stop>
            <stop stop-color="#FCEA0D" offset="100%"></stop>
        </linearGradient>
        <linearGradient x1="-0.00638359732%" y1="49.9996681%" x2="99.9550137%" y2="49.9996681%" id="linearGradient-13">
            <stop stop-color="#F8B133" offset="0.2390125%"></stop>
            <stop stop-color="#F8B530" offset="27.33%"></stop>
            <stop stop-color="#F9C029" offset="53.25%"></stop>
            <stop stop-color="#FAD41C" offset="78.6%"></stop>
            <stop stop-color="#FCEA0D" offset="100%"></stop>
        </linearGradient>
    </defs>
    <g id="Page-1" stroke="none" stroke-width="1" fill="none" fill-rule="evenodd">
        <g id="Etape3---2--rc-pro-detaille" transform="translate(-24.000000, -64.000000)">
            <g id="Header" transform="translate(0.000000, 44.000000)">
                <g id="Logo" transform="translate(24.000000, 20.000000)">
                    <path d="M28.7445333,24.7189333 C27.5328,25.9605333 25.5616,26.0117333 24.3456,24.8256 L21.5722667,22.1333333 L21.76,21.9392 L22.3253333,21.3610667 L22.5130667,21.1669333 L25.2864,23.8592 C25.9776,24.5376 27.1061333,24.5056 27.7973333,23.7973333 C28.4885333,23.0890667 28.4821333,21.9584 27.7909333,21.2864 C27.5264,21.0282667 27.5264,20.608 27.7845333,20.3392 C28.0490667,20.0746667 28.4693333,20.064 28.7253333,20.32 C29.9413333,21.4997333 29.9477333,23.4709333 28.7445333,24.7189333 Z" id="Path" fill="url(#linearGradient-1)"></path>
                    <g id="Group" transform="translate(3.200000, 3.200000)">
                        <path d="M19.1232,18.1610667 L18.5578667,18.7392 L11.2597333,11.6544 C11.328,11.3728 11.5413333,11.1530667 11.8186667,11.0762667 L11.8314667,11.0762667 L19.1232,18.1610667 Z" id="Path" fill="url(#linearGradient-2)"></path>
                        <path d="M1.30773333,0.727466667 C1.16906667,0.859733333 1.03466667,0.992 0.900266667,1.13066667 C0.808533333,1.22666667 0.7168,1.32266667 0.6272,1.41866667 C0.164266667,0.8832 -0.0704,0.386133333 0.0874666667,0.219733333 C0.2496,0.0533333333 0.759466667,0.2752 1.30773333,0.727466667 Z" id="Path" fill="url(#linearGradient-3)"></path>
                        <path d="M18.6026667,4.32853333 L29.8688,4.32853333 C30.2229333,4.32853333 30.5088,4.6144 30.5088,4.96853333 L30.5088,26.9717333 C30.5088,27.3258667 30.2229333,27.6117333 29.8688,27.6117333 L7.86346667,27.6117333 C7.50933333,27.6117333 7.22346667,27.3258667 7.22346667,26.9717333 L7.22346667,14.7968 L7.22346667,14.7968 C6.58773333,15.1296 6.16533333,15.7653333 6.1056,16.48 L6.03733333,17.3141333 L6.03733333,28.16 C6.03733333,28.5141333 6.3232,28.8 6.67733333,28.8 L31.0549333,28.8 C31.4090667,28.8 31.6949333,28.5141333 31.6949333,28.16 L31.6949333,3.7824 C31.6949333,3.42826667 31.4090667,3.1424 31.0549333,3.1424 L19.3130667,3.1424 C19.0528,3.1424 18.8266667,3.32373333 18.7690667,3.5776 L18.6026667,4.32853333 Z" id="Path" fill="url(#linearGradient-4)"></path>
                        <g transform="translate(35.626667, 0.640000)">
                            <path d="M9.17333333,27.8464 C8.93866667,27.1424 8.78293333,26.7114667 8.78293333,24.4842667 L8.78293333,20.1813333 C8.78293333,17.6405333 7.9232,16.7018667 5.96693333,16.7018667 L4.48,16.7018667 L4.48,27.8464 L0.1792,27.8464 L0.1792,0.4736 L6.67093333,0.4736 C11.1296,0.4736 13.0453333,2.5472 13.0453333,6.76906667 L13.0453333,8.91946667 C13.0453333,11.7354667 12.1450667,13.5722667 10.2293333,14.4725333 C12.3797333,15.3728 13.0837333,17.4442667 13.0837333,20.2986667 L13.0837333,24.5226667 C13.0837333,25.8517333 13.1221333,26.8309333 13.5530667,27.8464 L9.17333333,27.8464 Z M4.48,4.384 L4.48,12.7914667 L6.16106667,12.7914667 C7.76533333,12.7914667 8.7424,12.0874667 8.7424,9.89653333 L8.7424,7.19786667 C8.7424,5.2416 8.0768,4.38186667 6.55146667,4.38186667 L4.48,4.38186667 L4.48,4.384 Z" id="Shape" fill="url(#linearGradient-5)" fill-rule="nonzero"></path>
                            <path d="M28.6464,7.2384 L28.6464,10.7968 C28.6464,15.1765333 26.5344,17.5616 22.2336,17.5616 L20.2005333,17.5616 L20.2005333,27.8464 L15.8997333,27.8464 L15.8997333,0.4736 L22.2357333,0.4736 C26.5344,0.4736 28.6464,2.85866667 28.6464,7.2384 Z M20.1984,4.384 L20.1984,13.6512 L22.2314667,13.6512 C23.6010667,13.6512 24.3434667,13.0261333 24.3434667,11.0698667 L24.3434667,6.9632 C24.3434667,5.00693333 23.6010667,4.38186667 22.2314667,4.38186667 L20.1984,4.38186667 L20.1984,4.384 Z" id="Shape" fill="url(#linearGradient-6)" fill-rule="nonzero"></path>
                            <path d="M43.3088,17.6405333 L43.3088,21.2778667 C43.3088,25.6576 41.1178667,28.16 36.896,28.16 C32.672,28.16 30.4832,25.6576 30.4832,21.2778667 L30.4832,7.04426667 C30.4832,2.66453333 32.6741333,0.162133333 36.896,0.162133333 C41.12,0.162133333 43.3088,2.66453333 43.3088,7.04426667 L43.3088,9.70453333 L39.2426667,9.70453333 L39.2426667,6.7712 C39.2426667,4.81706667 38.3829333,4.07253333 37.0133333,4.07253333 C35.6437333,4.07253333 34.784,4.81493333 34.784,6.7712 L34.784,21.5530667 C34.784,23.5072 35.6437333,24.2112 37.0133333,24.2112 C38.3829333,24.2112 39.2426667,23.5072 39.2426667,21.5530667 L39.2426667,17.6426667 L43.3088,17.6426667 L43.3088,17.6405333 Z" id="Path" fill="url(#linearGradient-7)"></path>
                        </g>
                    </g>
                    <path d="M24.2197333,3.072 C18.4106667,-1.50186667 9.87306667,-0.945066667 4.4928,4.59093333 C-0.885333333,10.1290667 -1.19466667,18.6794667 3.5456,24.352 C3.7312,23.68 4.12586667,22.9866667 4.70826667,22.3850667 C5.65333333,21.4101333 6.8544,20.9301333 7.83786667,21.0282667 C7.83573333,21.0090667 7.8336,20.9877333 7.83146667,20.9685333 C7.79946667,20.6656 7.8208,20.3413333 7.89333333,20.0106667 C7.89333333,20.0085333 7.89333333,20.0085333 7.89333333,20.0064 C7.90826667,19.9424 7.9232,19.8784 7.9424,19.8122667 C7.94453333,19.808 7.94453333,19.8037333 7.94666667,19.7994667 C7.96373333,19.7376 7.98293333,19.6757333 8.00426667,19.6117333 C8.0064,19.6053333 8.00853333,19.5968 8.0128,19.5904 C8.03413333,19.5306667 8.05546667,19.4709333 8.07893333,19.4112 C8.0832,19.4005333 8.08746667,19.3898667 8.09173333,19.3792 C8.1152,19.3237333 8.13866667,19.2661333 8.16426667,19.2106667 C8.17066667,19.1957333 8.17706667,19.1829333 8.1856,19.168 C8.2112,19.1146667 8.2368,19.0634667 8.2624,19.0101333 C8.27093333,18.9930667 8.2816,18.9738667 8.29226667,18.9568 C8.31786667,18.9077333 8.34346667,18.8608 8.37333333,18.8117333 C8.38613333,18.7882667 8.40106667,18.7669333 8.416,18.7434667 C8.4416,18.7008 8.4672,18.6581333 8.49706667,18.6154667 C8.51413333,18.5877333 8.53333333,18.5621333 8.55253333,18.5344 C8.57813333,18.496 8.60373333,18.4597333 8.63146667,18.4213333 C8.65493333,18.3893333 8.6784,18.3594667 8.704,18.3274667 C8.7296,18.2954667 8.75306667,18.2613333 8.77866667,18.2293333 C8.80853333,18.1930667 8.8384,18.1568 8.8704,18.1205333 C8.89173333,18.0949333 8.91306667,18.0672 8.93653333,18.0416 C8.992,17.9797333 9.04746667,17.9178667 9.10506667,17.8581333 C10.0501333,16.8832 11.2512,16.4032 12.2346667,16.5013333 C12.2325333,16.4885333 12.2325333,16.4757333 12.2304,16.4650667 C12.1877333,16.1002667 12.224,15.7034667 12.3370667,15.3002667 C12.3370667,15.2981333 12.3370667,15.2981333 12.3392,15.296 C12.3584,15.2298667 12.3776,15.1637333 12.3989333,15.0976 C12.4010667,15.0933333 12.4010667,15.0890667 12.4032,15.0848 C12.4245333,15.0208 12.448,14.9589333 12.4736,14.8949333 C12.4757333,14.8864 12.48,14.88 12.4842667,14.8714667 C12.5077333,14.8117333 12.5333333,14.752 12.5610667,14.6922667 C12.5653333,14.6816 12.5717333,14.6688 12.5781333,14.6581333 C12.6037333,14.6026667 12.6314667,14.5472 12.6592,14.4917333 C12.6677333,14.4768 12.6762667,14.4597333 12.6848,14.4448 C12.7125333,14.3936 12.7402667,14.3424 12.7701333,14.2912 C12.7829333,14.2698667 12.7957333,14.2506667 12.8085333,14.2293333 C12.8362667,14.1845333 12.864,14.1376 12.8938667,14.0928 C12.9109333,14.0672 12.928,14.0416 12.9472,14.016 C12.9749333,13.9754667 13.0005333,13.9370667 13.0304,13.8965333 C13.0538667,13.8645333 13.0773333,13.8346667 13.1008,13.8048 C13.1264,13.7706667 13.1498667,13.7365333 13.1776,13.7045333 C13.2074667,13.6682667 13.2373333,13.632 13.2693333,13.5957333 C13.2928,13.568 13.3141333,13.5424 13.3376,13.5146667 C13.3930667,13.4528 13.4485333,13.3909333 13.5082667,13.3312 C13.568,13.2714667 13.6277333,13.2117333 13.6874667,13.1562667 C13.7109333,13.1349333 13.7344,13.1157333 13.7578667,13.0944 C13.7962667,13.0602667 13.8325333,13.0261333 13.8709333,12.992 C13.9050667,12.9642667 13.9392,12.9365333 13.9733333,12.9088 C14.0010667,12.8853333 14.0309333,12.8618667 14.0586667,12.8384 C14.0970667,12.8085333 14.1376,12.7808 14.1781333,12.7509333 C14.2016,12.7338667 14.2272,12.7146667 14.2506667,12.6976 C14.2954667,12.6677333 14.3402667,12.6378667 14.3850667,12.608 C14.4042667,12.5952 14.4256,12.5802667 14.4448,12.5674667 C14.496,12.5354667 14.5450667,12.5077333 14.5962667,12.4778667 C14.6112,12.4693333 14.6261333,12.4586667 14.6410667,12.4522667 C14.6965333,12.4224 14.7498667,12.3925333 14.8053333,12.3669333 C14.816,12.3605333 14.8288,12.3541333 14.8394667,12.3498667 C14.8992,12.32 14.9589333,12.2944 15.0186667,12.2666667 C15.0250667,12.2645333 15.0336,12.2602667 15.04,12.2581333 C15.1018667,12.2304 15.1658667,12.2069333 15.2277333,12.1834667 C15.232,12.1813333 15.2362667,12.1813333 15.2384,12.1792 C15.3045333,12.1557333 15.3706667,12.1322667 15.4346667,12.1130667 C15.4346667,12.1130667 15.4368,12.1130667 15.4368,12.1130667 C15.8357333,11.9893333 16.2304,11.9424 16.5973333,11.9744 C16.6101333,11.9765333 16.6229333,11.9765333 16.6357333,11.9765333 C16.5077333,10.9952 16.9536,9.78346667 17.9008,8.80853333 C17.9584,8.7488 18.0181333,8.6912 18.08,8.6336 C18.1056,8.61013333 18.1290667,8.5888 18.1546667,8.56746667 C18.1909333,8.53546667 18.2272,8.50133333 18.2634667,8.47146667 C18.2954667,8.44586667 18.3253333,8.42026667 18.3573333,8.39466667 C18.3893333,8.36906667 18.4192,8.34346667 18.4512,8.32 C18.4874667,8.29226667 18.5258667,8.26453333 18.5621333,8.23893333 C18.5877333,8.21973333 18.6154667,8.1984 18.6410667,8.18133333 C18.6816,8.1536 18.7242667,8.12586667 18.7648,8.09813333 C18.7882667,8.0832 18.8096,8.06826667 18.8330667,8.05333333 C18.88,8.02346667 18.9269333,7.99786667 18.9717333,7.97013333 C18.9909333,7.95946667 19.008,7.9488 19.0272,7.93813333 C19.0784,7.9104 19.1296,7.88266667 19.1808,7.85706667 C19.1957333,7.85066667 19.2106667,7.84213333 19.2256,7.8336 C19.2810667,7.80586667 19.3365333,7.78026667 19.392,7.7568 C19.4026667,7.75253333 19.4133333,7.74613333 19.424,7.74186667 C19.4837333,7.71626667 19.5413333,7.6928 19.6010667,7.67146667 C19.6074667,7.66933333 19.6138667,7.66506667 19.6224,7.66293333 C19.6842667,7.63946667 19.7461333,7.61813333 19.808,7.59893333 C19.8122667,7.5968 19.8165333,7.5968 19.8208,7.59466667 C19.8848,7.57546667 19.9488,7.55626667 20.0128,7.54133333 C20.0149333,7.54133333 20.0170667,7.54133333 20.0170667,7.5392 C20.3456,7.456 20.6677333,7.42613333 20.9728,7.4496 C20.992,7.45173333 21.0133333,7.45173333 21.0325333,7.45386667 C20.9045333,6.47253333 21.3504,5.2608 22.2976,4.28586667 C22.8736,3.69066667 23.5541333,3.2768 24.2197333,3.072 Z" id="Path" fill="url(#linearGradient-8)"></path>
                    <path d="M4.49493333,4.59093333 C8.00853333,0.974933333 15.2618667,2.28266667 20.9642667,7.45386667 C20.9834667,7.456 21.0048,7.456 21.024,7.45813333 C20.896,6.4768 21.3418667,5.26506667 22.2890667,4.29013333 C22.8736,3.68853333 23.5541333,3.2768 24.2218667,3.06986667 C18.4128,-1.50186667 9.87306667,-0.945066667 4.49493333,4.59093333 Z" id="Path" fill="url(#linearGradient-9)"></path>
                    <path d="M4.49493333,4.59093333 C-0.8832,10.1290667 -1.19253333,18.6794667 3.54773333,24.352 C3.73333333,23.68 4.128,22.9866667 4.7104,22.3850667 C5.65546667,21.4101333 6.85653333,20.9301333 7.84,21.0282667 C7.83786667,21.0090667 7.83573333,20.9877333 7.8336,20.9685333 C2.49813333,15.4197333 0.981333333,8.20693333 4.49493333,4.59093333 Z" id="Path" fill="url(#linearGradient-10)"></path>
                    <path d="M4.49493333,4.59093333 C5.66186667,3.38986667 11.008,6.6752 16.5930667,11.9808 C16.5930667,11.9808 16.5930667,11.9808 16.5930667,11.9808 C16.6058667,11.9829333 16.6186667,11.9829333 16.6314667,11.9829333 C16.5034667,11.0016 16.9493333,9.78986667 17.8965333,8.81493333 C17.9541333,8.7552 18.0138667,8.6976 18.0757333,8.64 C18.1013333,8.61653333 18.1248,8.5952 18.1504,8.57386667 C18.1866667,8.54186667 18.2229333,8.50773333 18.2592,8.47786667 C18.2912,8.45226667 18.3210667,8.42666667 18.3530667,8.40106667 C18.3850667,8.37546667 18.4149333,8.34986667 18.4469333,8.3264 C18.4832,8.29866667 18.5216,8.27093333 18.5578667,8.24533333 C18.5834667,8.22613333 18.6112,8.2048 18.6368,8.18773333 C18.6773333,8.16 18.72,8.13226667 18.7605333,8.10453333 C18.784,8.0896 18.8053333,8.07466667 18.8288,8.05973333 C18.8757333,8.02986667 18.9226667,8.00426667 18.9674667,7.97653333 C18.9866667,7.96586667 19.0037333,7.9552 19.0229333,7.94453333 C19.0741333,7.9168 19.1253333,7.88906667 19.1765333,7.86346667 C19.1914667,7.85706667 19.2064,7.84853333 19.2213333,7.84 C19.2768,7.81226667 19.3322667,7.78666667 19.3877333,7.7632 C19.3984,7.75893333 19.4090667,7.75253333 19.4197333,7.74826667 C19.4794667,7.72266667 19.5370667,7.6992 19.5968,7.67786667 C19.6032,7.67573333 19.6096,7.67146667 19.6181333,7.66933333 C19.68,7.64586667 19.7418667,7.62453333 19.8037333,7.60533333 C19.808,7.6032 19.8122667,7.6032 19.8165333,7.60106667 C19.8805333,7.58186667 19.9445333,7.56266667 20.0085333,7.54773333 C20.0106667,7.54773333 20.0128,7.54773333 20.0128,7.5456 C20.3413333,7.4624 20.6634667,7.43253333 20.9685333,7.456 C15.2618667,2.28266667 8.0064,0.974933333 4.49493333,4.59093333 Z" id="Path" fill="url(#linearGradient-11)"></path>
                    <path d="M4.49493333,4.59093333 C0.981333333,8.20693333 2.49813333,15.4197333 7.8336,20.9685333 C7.8016,20.6656 7.82293333,20.3413333 7.89546667,20.0106667 C7.89546667,20.0085333 7.89546667,20.0085333 7.89546667,20.0064 C7.9104,19.9424 7.92533333,19.8784 7.94453333,19.8122667 C7.94666667,19.808 7.94666667,19.8037333 7.9488,19.7994667 C7.96586667,19.7376 7.98506667,19.6757333 8.0064,19.6117333 C8.00853333,19.6053333 8.01066667,19.5968 8.01493333,19.5904 C8.03626667,19.5306667 8.0576,19.4709333 8.08106667,19.4112 C8.08533333,19.4005333 8.0896,19.3898667 8.09386667,19.3792 C8.11733333,19.3237333 8.1408,19.2661333 8.1664,19.2106667 C8.1728,19.1957333 8.1792,19.1829333 8.18773333,19.168 C8.21333333,19.1146667 8.23893333,19.0634667 8.26453333,19.0101333 C8.27306667,18.9930667 8.28373333,18.9738667 8.2944,18.9568 C8.32,18.9077333 8.3456,18.8608 8.37546667,18.8117333 C8.38826667,18.7882667 8.4032,18.7669333 8.41813333,18.7434667 C8.44373333,18.7008 8.46933333,18.6581333 8.4992,18.6154667 C8.51626667,18.5877333 8.53546667,18.5621333 8.55466667,18.5344 C8.58026667,18.496 8.60586667,18.4597333 8.6336,18.4213333 C8.65706667,18.3893333 8.68053333,18.3594667 8.70613333,18.3274667 C8.73173333,18.2954667 8.7552,18.2613333 8.7808,18.2293333 C8.81066667,18.1930667 8.84053333,18.1568 8.87253333,18.1205333 C8.89386667,18.0949333 8.9152,18.0672 8.93866667,18.0416 C8.99413333,17.9797333 9.0496,17.9178667 9.1072,17.8581333 C10.0522667,16.8832 11.2533333,16.4032 12.2368,16.5013333 C12.2346667,16.4885333 12.2346667,16.4757333 12.2325333,16.4650667 C6.7648,11.0421333 3.32586667,5.79413333 4.49493333,4.59093333 Z" id="Path" fill="url(#linearGradient-12)"></path>
                    <path d="M4.49493333,4.59093333 C3.328,5.792 6.76693333,11.0421333 12.2304,16.4693333 C12.1877333,16.1045333 12.224,15.7077333 12.3370667,15.3045333 C12.3370667,15.3024 12.3370667,15.3024 12.3392,15.3002667 C12.3584,15.2341333 12.3776,15.168 12.3989333,15.1018667 C12.4010667,15.0976 12.4010667,15.0933333 12.4032,15.0890667 C12.4245333,15.0250667 12.448,14.9632 12.4736,14.8992 C12.4757333,14.8906667 12.48,14.8842667 12.4842667,14.8757333 C12.5077333,14.816 12.5333333,14.7562667 12.5610667,14.6965333 C12.5653333,14.6858667 12.5717333,14.6730667 12.5781333,14.6624 C12.6037333,14.6069333 12.6314667,14.5514667 12.6592,14.496 C12.6677333,14.4810667 12.6762667,14.464 12.6848,14.4490667 C12.7125333,14.3978667 12.7402667,14.3466667 12.7701333,14.2954667 C12.7829333,14.2741333 12.7957333,14.2549333 12.8085333,14.2336 C12.8362667,14.1888 12.864,14.1418667 12.8938667,14.0970667 C12.9109333,14.0714667 12.928,14.0458667 12.9472,14.0202667 C12.9749333,13.9797333 13.0005333,13.9413333 13.0304,13.9008 C13.0538667,13.8688 13.0773333,13.8389333 13.1008,13.8090667 C13.1264,13.7749333 13.1498667,13.7408 13.1776,13.7088 C13.2074667,13.6725333 13.2373333,13.6362667 13.2693333,13.6 C13.2928,13.5722667 13.3141333,13.5466667 13.3376,13.5189333 C13.3930667,13.4570667 13.4485333,13.3952 13.5082667,13.3354667 C13.568,13.2757333 13.6277333,13.216 13.6874667,13.1605333 C13.7109333,13.1392 13.7344,13.12 13.7578667,13.0986667 C13.7962667,13.0645333 13.8325333,13.0304 13.8709333,12.9962667 C13.9050667,12.9685333 13.9392,12.9408 13.9733333,12.9130667 C14.0010667,12.8896 14.0309333,12.8661333 14.0586667,12.8426667 C14.0970667,12.8128 14.1376,12.7850667 14.1781333,12.7552 C14.2016,12.7381333 14.2272,12.7189333 14.2506667,12.7018667 C14.2954667,12.672 14.3402667,12.6421333 14.3850667,12.6122667 C14.4042667,12.5994667 14.4256,12.5845333 14.4448,12.5717333 C14.496,12.5397333 14.5450667,12.512 14.5962667,12.4821333 C14.6112,12.4736 14.6261333,12.4629333 14.6410667,12.4565333 C14.6965333,12.4266667 14.7498667,12.3968 14.8053333,12.3712 C14.816,12.3648 14.8288,12.3584 14.8394667,12.3541333 C14.8992,12.3242667 14.9589333,12.2986667 15.0186667,12.2709333 C15.0250667,12.2688 15.0336,12.2645333 15.04,12.2624 C15.1018667,12.2346667 15.1658667,12.2112 15.2277333,12.1877333 C15.232,12.1856 15.2362667,12.1856 15.2384,12.1834667 C15.3045333,12.16 15.3706667,12.1365333 15.4346667,12.1173333 C15.4346667,12.1173333 15.4368,12.1173333 15.4368,12.1173333 C15.8357333,11.9936 16.2304,11.9466667 16.5973333,11.9786667 C16.5973333,11.9786667 16.5973333,11.9786667 16.5973333,11.9786667 C11.008,6.6752 5.66186667,3.38986667 4.49493333,4.59093333 Z" id="Path" fill="url(#linearGradient-13)"></path>
                </g>
            </g>
        </g>
    </g>
</svg>